<svg width="180" height="48" viewBox="0 0 180 48" fill="none" xmlns="http://www.w3.org/2000/svg">
  <rect width="180" height="48" rx="14" fill="#0F172A" />
  <g filter="url(#glow)">
    <path
      d="M27.4 12.5c3.6 0 6.6 3 6.6 6.6 0 2.4-1.3 4.5-3.3 5.7l4 7.5h-4.6l-3-5.9h-3v5.9h-4.2V12.5h7.5Zm-0.2 9.2c1.5 0 2.7-1.2 2.7-2.7s-1.2-2.7-2.7-2.7h-3.1v5.4h3.1Z"
      fill="#FF7B54"
    />
    <path
      d="M52.8 12.1c4.8 0 8.7 3.9 8.7 8.7 0 4.9-3.9 8.8-8.7 8.8-4.9 0-8.8-3.9-8.8-8.8 0-4.8 3.9-8.7 8.8-8.7Zm0 13.6c2.7 0 4.9-2.2 4.9-4.9s-2.2-4.8-4.9-4.8-4.9 2.1-4.9 4.8 2.2 4.9 4.9 4.9Z"
      fill="#F8FAFC"
    />
    <path
      d="M74 12.5c3 0 5.3 1.1 6.8 2.6l-2.6 3.2c-1-0.9-2.3-1.6-3.9-1.6-2.8 0-4.9 2.1-4.9 4.9s2.1 4.9 5 4.9c1.6 0 2.9-0.7 3.8-1.6l2.6 3.3c-1.6 1.6-3.8 2.6-6.5 2.6-5.6 0-9.4-3.8-9.4-9.1 0-5.3 3.9-9.2 9.1-9.2Z"
      fill="#F8FAFC"
    />
    <path
      d="M90.5 12.5c3.6 0 6.6 3 6.6 6.6 0 2.4-1.3 4.5-3.3 5.7l4 7.5h-4.6l-3-5.9h-3v5.9h-4.2V12.5h7.5Zm-0.1 9.2c1.5 0 2.7-1.2 2.7-2.7s-1.2-2.7-2.7-2.7h-3.2v5.4h3.2Z"
      fill="#F8FAFC"
    />
    <path
      d="M109.4 12.1c4.8 0 8.7 3.9 8.7 8.7 0 4.9-3.9 8.8-8.7 8.8-4.9 0-8.8-3.9-8.8-8.8 0-4.8 3.9-8.7 8.8-8.7Zm0 13.6c2.7 0 4.9-2.2 4.9-4.9s-2.2-4.8-4.9-4.8-4.9 2.1-4.9 4.8 2.2 4.9 4.9 4.9Z"
      fill="#F8FAFC"
    />
    <path
      d="M123.3 12.5h4.2l3.1 8.7 3-8.7h4.1l-5.1 13.2h-4.1l-5.2-13.2Z"
      fill="#F8FAFC"
    />
    <path
      d="M145.3 12.5h11.5v3.7h-7.4v2.1h6.5v3.6h-6.5v2.2h7.4v3.7h-11.5V12.5Z"
      fill="#F8FAFC"
    />
  </g>
  <defs>
    <filter id="glow" x="13.4" y="3.5" width="135.4" height="40.2" filterUnits="userSpaceOnUse" color-interpolation-filters="sRGB">
      <feGaussianBlur stdDeviation="3" result="blur" />
      <feMerge>
        <feMergeNode in="blur" />
        <feMergeNode in="SourceGraphic" />
      </feMerge>
    </filter>
  </defs>
</svg>


